<svg  width="100%" viewBox="0 0 508 196" fill="none" xmlns="http://www.w3.org/2000/svg" class="promo__svg">
<path d="M26.3634 182.989H9.98483L5.51793 194.832H0.175171L17.0793 151.546H19.5317L36.5234 194.832H30.9179L26.3634 182.989ZM11.649 178.652H24.7869L19.7945 165.724L18.2179 159.302H18.1303L16.5538 165.891L11.649 178.652Z" fill="white"/>
<path d="M58.8579 168.643H49.5738C49.4862 170.312 49.311 172.146 49.2234 174.148C49.1359 176.15 48.8731 178.068 48.6103 180.07C48.3476 182.072 47.9972 183.906 47.5593 185.741C47.1214 187.576 46.5959 189.161 45.8952 190.495C45.1945 191.913 44.4062 192.997 43.4427 193.832C42.4793 194.666 41.3407 195.083 40.0269 195.083C39.2386 195.083 38.5379 195.083 37.9248 194.999C37.3117 194.916 36.7862 194.749 36.3483 194.582L37.1365 190.495C37.6621 190.662 38.1876 190.746 38.8007 190.746C39.6765 190.746 40.3772 190.412 41.0779 189.745C41.7786 189.077 42.3917 187.743 42.8296 185.825C43.2676 183.906 43.7931 181.237 44.1434 177.818C44.4938 174.398 44.7565 169.978 44.8441 164.473H63.9379V194.916H58.8579V168.643Z" fill="white"/>
<path d="M97.1331 192.414C95.8193 193.414 94.2427 194.165 92.3158 194.749C90.3889 195.333 88.2869 195.583 86.1848 195.583C83.7324 195.583 81.6303 195.166 79.8786 194.415C78.1269 193.665 76.6379 192.58 75.4993 191.163C74.3607 189.745 73.4848 188.077 72.9593 186.158C72.4338 184.24 72.171 181.988 72.171 179.569C72.171 174.398 73.3972 170.395 75.8496 167.726C78.3021 164.974 81.7179 163.639 86.2724 163.639C87.7614 163.639 89.1627 163.806 90.6517 164.056C92.1407 164.39 93.3669 164.974 94.5931 165.808C95.7317 166.642 96.6951 167.893 97.3958 169.394C98.0965 170.979 98.4469 172.98 98.4469 175.566C98.4469 176.9 98.3593 178.402 98.0965 179.986H77.6014C77.6014 181.738 77.7765 183.323 78.2145 184.74C78.6524 186.158 79.1779 187.326 79.9662 188.243C80.7545 189.161 81.8055 189.912 83.1193 190.412C84.4331 190.912 86.0096 191.163 87.8489 191.163C89.3379 191.163 90.7393 190.912 92.2283 190.412C93.7172 189.912 94.7683 189.328 95.4689 188.744L97.1331 192.414ZM86.1848 167.893C83.6448 167.893 81.6303 168.56 80.1414 169.811C78.6524 171.062 77.689 173.231 77.4262 176.233H93.2793C93.2793 173.147 92.6662 170.979 91.44 169.728C90.1262 168.477 88.3745 167.893 86.1848 167.893Z" fill="white"/>
<path d="M114.3 181.071H111.322V194.749H106.242V164.306H111.322V178.068L114.037 177.234L124.285 164.306H129.89L119.993 176.567L117.278 178.569L120.606 180.987L131.292 194.749H124.986L114.3 181.071Z" fill="white"/>
<path d="M157.918 192.831C156.604 193.748 155.115 194.415 153.363 194.832C151.612 195.333 149.772 195.5 147.846 195.5C145.393 195.5 143.291 195.083 141.539 194.332C139.875 193.581 138.474 192.497 137.335 191.079C136.284 189.661 135.496 187.993 134.97 185.992C134.445 183.99 134.27 181.821 134.27 179.486C134.27 174.315 135.496 170.395 137.861 167.643C140.226 164.89 143.641 163.556 148.196 163.556C150.21 163.556 151.962 163.723 153.363 163.973C154.765 164.306 156.079 164.723 157.217 165.307L155.728 169.477C154.765 168.977 153.626 168.56 152.488 168.226C151.261 167.893 150.035 167.809 148.634 167.809C142.59 167.809 139.525 171.729 139.525 179.486C139.525 180.987 139.7 182.489 139.963 183.906C140.313 185.324 140.839 186.575 141.539 187.66C142.328 188.744 143.291 189.578 144.517 190.245C145.743 190.912 147.232 191.246 148.984 191.246C150.561 191.246 151.874 190.996 153.101 190.579C154.327 190.162 155.29 189.661 156.079 189.077L157.918 192.831Z" fill="white"/>
<path d="M186.821 192.414C185.508 193.414 183.931 194.165 182.004 194.749C180.077 195.333 177.975 195.583 175.873 195.583C173.421 195.583 171.319 195.166 169.567 194.415C167.815 193.665 166.326 192.58 165.188 191.163C164.049 189.745 163.173 188.077 162.648 186.158C162.122 184.24 161.859 181.988 161.859 179.569C161.859 174.398 163.086 170.395 165.538 167.726C167.99 164.974 171.406 163.639 175.961 163.639C177.45 163.639 178.851 163.806 180.34 164.056C181.829 164.39 183.055 164.974 184.281 165.808C185.42 166.642 186.383 167.893 187.084 169.394C187.785 170.979 188.135 172.98 188.135 175.566C188.135 176.9 188.048 178.402 187.785 179.986H167.29C167.29 181.738 167.465 183.323 167.903 184.74C168.253 186.158 168.866 187.326 169.654 188.243C170.443 189.161 171.494 189.912 172.808 190.412C174.121 190.912 175.698 191.163 177.537 191.163C179.026 191.163 180.428 190.912 181.917 190.412C183.406 189.912 184.457 189.328 185.157 188.744L186.821 192.414ZM175.873 167.893C173.333 167.893 171.319 168.56 169.83 169.811C168.341 171.062 167.377 173.231 167.114 176.233H182.968C182.968 173.147 182.354 170.979 181.128 169.728C179.814 168.477 178.063 167.893 175.873 167.893Z" fill="white"/>
<path d="M215.9 176.817L216.075 173.064H215.9L213.272 176.984L198.908 194.916H195.93V164.473H201.01V183.072L200.835 186.659H201.098L203.55 182.906L217.914 164.557H220.892V194.999H215.812V176.817H215.9ZM203.375 152.046C203.813 153.881 204.514 155.215 205.565 155.966C206.616 156.717 207.842 157.05 209.156 157.05C210.557 157.05 211.696 156.633 212.834 155.883C213.886 155.132 214.586 153.881 215.024 152.129L218.878 153.297C218.528 155.632 217.389 157.467 215.55 158.718C213.71 159.969 211.608 160.637 209.068 160.637C207.93 160.637 206.791 160.47 205.652 160.22C204.514 159.969 203.55 159.469 202.587 158.969C201.711 158.385 200.923 157.634 200.31 156.8C199.697 155.883 199.259 154.882 198.996 153.631L203.375 152.046Z" fill="white"/>
<path d="M267.663 182.989H251.285L246.818 194.832H241.475L258.379 151.546H260.832L277.823 194.832H272.218L267.663 182.989ZM252.949 178.652H266.087L261.094 165.724L259.518 159.302H259.43L257.854 165.891L252.949 178.652Z" fill="white"/>
<path d="M300.158 168.643H290.874C290.786 170.312 290.611 172.146 290.523 174.148C290.436 176.15 290.173 178.068 289.91 180.07C289.648 182.072 289.297 183.906 288.859 185.741C288.421 187.576 287.896 189.161 287.195 190.495C286.494 191.913 285.706 192.997 284.743 193.832C283.779 194.666 282.641 195.083 281.327 195.083C280.539 195.083 279.838 195.083 279.225 194.999C278.612 194.916 278.086 194.749 277.648 194.582L278.437 190.495C278.962 190.662 279.488 190.746 280.101 190.746C280.977 190.746 281.677 190.412 282.378 189.745C283.079 189.077 283.692 187.743 284.13 185.825C284.568 183.906 285.093 181.237 285.443 177.818C285.794 174.398 286.057 169.978 286.144 164.473H305.238V194.916H300.158V168.643Z" fill="white"/>
<path d="M335.017 176.817L335.192 173.064H335.017L332.39 176.984L318.026 194.916H315.048V164.473H320.128V183.072L319.952 186.659H320.215L322.668 182.906L337.032 164.557H340.01V194.999H334.93V176.817H335.017Z" fill="white"/>
<path d="M358.052 181.071H355.074V194.749H349.995V164.306H355.074V178.068L357.79 177.234L368.037 164.306H373.643L363.746 176.567L361.03 178.569L364.359 180.987L375.044 194.749H368.738L358.052 181.071Z" fill="white"/>
<path d="M378.11 179.569C378.11 174.398 379.336 170.478 381.701 167.726C384.066 164.974 387.569 163.639 392.123 163.639C394.488 163.639 396.59 164.056 398.342 164.807C400.094 165.557 401.583 166.642 402.721 168.06C403.86 169.477 404.736 171.146 405.261 173.147C405.787 175.149 406.05 177.317 406.05 179.653C406.05 184.824 404.823 188.744 402.459 191.496C400.006 194.249 396.59 195.583 392.036 195.583C389.671 195.583 387.569 195.166 385.817 194.415C384.066 193.665 382.577 192.58 381.438 191.163C380.299 189.745 379.423 188.077 378.898 186.075C378.372 184.157 378.11 181.988 378.11 179.569ZM383.365 179.569C383.365 181.071 383.54 182.572 383.803 183.99C384.153 185.408 384.591 186.659 385.292 187.743C385.992 188.827 386.868 189.661 388.007 190.329C389.146 190.996 390.459 191.329 392.036 191.329C397.817 191.329 400.707 187.493 400.707 179.653C400.707 178.068 400.532 176.567 400.269 175.149C399.919 173.731 399.481 172.48 398.78 171.396C398.079 170.312 397.203 169.477 396.065 168.894C394.926 168.226 393.612 167.976 392.036 167.976C386.255 167.893 383.365 171.729 383.365 179.569Z" fill="white"/>
<path d="M414.108 164.39C415.597 164.306 417.173 164.223 418.837 164.056C420.501 163.973 422.516 163.889 424.968 163.889C429.172 163.889 432.238 164.473 434.077 165.724C435.917 166.975 436.792 168.81 436.792 171.396C436.792 172.814 436.354 174.232 435.479 175.566C434.603 176.9 433.201 177.901 431.187 178.569V178.819C433.727 179.236 435.479 180.07 436.53 181.321C437.581 182.572 438.106 184.157 438.106 186.158C438.106 189.328 436.88 191.58 434.515 192.997C432.15 194.415 428.559 195.166 423.742 195.166C421.99 195.166 420.326 195.083 418.75 194.999C417.173 194.916 415.684 194.749 414.195 194.666V164.39H414.108ZM425.494 177.234C426.282 177.234 426.983 177.151 427.771 176.9C428.472 176.65 429.172 176.317 429.698 175.9C430.311 175.483 430.749 174.982 431.099 174.398C431.45 173.815 431.625 173.231 431.625 172.563C431.625 170.979 431.099 169.811 430.048 169.144C428.997 168.477 427.245 168.226 424.705 168.226C423.304 168.226 422.253 168.226 421.465 168.31C420.677 168.31 419.888 168.393 419.188 168.393V177.234H425.494ZM419.275 190.746C420.063 190.829 420.852 190.912 421.64 190.912C422.428 190.912 423.392 190.996 424.443 190.996C427.333 190.996 429.435 190.579 430.837 189.828C432.238 189.077 432.939 187.743 432.939 185.908C432.939 184.407 432.325 183.239 431.187 182.322C430.048 181.404 427.946 180.987 424.968 180.987H419.363V190.746H419.275Z" fill="white"/>
<path d="M465.959 176.817L466.134 173.064H465.959L463.331 176.984L448.967 194.916H445.989V164.473H451.069V183.072L450.894 186.659H451.157L453.609 182.906L467.973 164.557H470.951V194.999H465.959V176.817Z" fill="white"/>
<path d="M484.264 164.39V172.647C484.264 173.731 484.352 174.732 484.439 175.566C484.527 176.4 484.79 177.151 485.228 177.818C485.578 178.485 486.191 178.902 486.892 179.319C487.592 179.653 488.556 179.82 489.782 179.82C491.709 179.82 493.285 179.653 494.512 179.236C495.738 178.819 496.701 178.402 497.314 177.901V164.39H502.394V194.832H497.314V182.071C496.614 182.488 495.65 182.906 494.249 183.406C492.935 183.906 491.096 184.157 488.731 184.157C487.154 184.157 485.753 183.99 484.614 183.656C483.388 183.323 482.425 182.739 481.637 181.988C480.848 181.237 480.235 180.07 479.797 178.735C479.359 177.401 479.184 175.733 479.184 173.648V164.39H484.264Z" fill="white"/>
<path d="M70.5945 26.7728H16.9041V136.449H1.66412V13.8451H70.6821V26.7728H70.5945Z" fill="white"/>
<path d="M59.7337 55.297C64.3758 52.6281 69.8062 50.6264 76.0248 49.3753C82.2434 48.1243 88.7248 47.457 95.4689 47.457C101.863 47.457 106.943 48.2911 110.797 49.8758C114.65 51.5438 117.628 53.6289 119.643 56.2979C121.657 58.9668 122.971 61.8026 123.672 64.9719C124.372 68.1413 124.723 71.3106 124.723 74.3966C124.723 81.4026 124.548 88.2417 124.197 94.914C123.847 101.586 123.672 107.842 123.672 113.847C123.672 118.184 123.847 122.271 124.197 126.107C124.548 129.944 125.248 133.53 126.212 136.783H115.351L111.497 124.523H110.534C109.395 126.191 108.081 127.775 106.417 129.36C104.753 130.945 102.739 132.363 100.461 133.53C98.0965 134.781 95.4689 135.782 92.4034 136.616C89.3379 137.45 85.8344 137.867 81.8931 137.867C77.9517 137.867 74.3606 137.283 70.9448 136.116C67.5289 134.948 64.6386 133.28 62.1862 131.111C59.7338 128.943 57.8069 126.357 56.4055 123.355C55.0041 120.352 54.3034 116.849 54.3034 113.013C54.3034 107.842 55.442 103.588 57.6317 100.169C59.8213 96.7489 62.9744 93.9966 66.9158 91.9115C70.8572 89.9098 75.6744 88.4085 81.28 87.4911C86.8855 86.657 93.0165 86.1566 99.7606 86.1566C101.512 86.1566 103.177 86.1566 104.841 86.1566C106.505 86.1566 108.169 86.24 109.921 86.4902C110.271 82.9872 110.446 79.8179 110.446 77.0655C110.446 70.6434 109.132 66.1396 106.417 63.554C103.702 60.9685 98.7972 59.7175 91.7027 59.7175C89.6006 59.7175 87.411 59.8843 84.9586 60.1345C82.5062 60.3847 80.1413 60.8851 77.6013 61.3855C75.0613 61.886 72.6965 62.5532 70.4193 63.3872C68.142 64.1379 66.1275 65.0553 64.4634 65.9728L59.7337 55.297ZM85.8344 125.607C89.2503 125.607 92.3158 125.19 95.031 124.272C97.7462 123.438 100.023 122.271 102.038 120.936C103.965 119.602 105.629 118.1 106.943 116.432C108.257 114.764 109.22 113.263 109.833 111.678V97.166C108.081 97.0826 106.33 96.9991 104.578 96.9157C102.826 96.8323 101.074 96.8323 99.3227 96.8323C95.5565 96.8323 91.7903 96.9992 88.1993 97.4162C84.6082 97.8332 81.3675 98.5838 78.6524 99.6681C75.9372 100.752 73.66 102.337 71.9958 104.255C70.3317 106.174 69.5434 108.592 69.5434 111.511C69.5434 115.598 71.0324 118.934 74.1855 121.603C77.1634 124.272 81.1048 125.607 85.8344 125.607Z" fill="white"/>
<path d="M208.718 97.7498H167.115V136.449H152.4V48.8749H167.115V85.4893H208.718V48.8749H223.432V136.449H208.718V97.7498Z" fill="white"/>
<path d="M318.901 129.443C315.223 132.279 310.581 134.448 304.975 136.116C299.37 137.784 293.501 138.534 287.195 138.534C280.188 138.534 274.145 137.45 268.977 135.282C263.81 133.113 259.606 130.027 256.277 126.024C252.949 122.02 250.497 117.183 248.92 111.595C247.343 106.007 246.555 99.6681 246.555 92.6621C246.555 77.7327 250.059 66.3064 257.066 58.4664C264.072 50.6264 274.057 46.7064 287.02 46.7064C291.224 46.7064 295.341 47.1234 299.545 48.0408C303.749 48.8749 307.428 50.543 310.756 53.0451C314.084 55.5472 316.799 58.9668 318.814 63.4706C320.916 67.9744 321.967 73.8961 321.967 81.2357C321.967 85.0723 321.617 89.3259 320.828 93.9966H261.883C261.883 99.1676 262.408 103.671 263.547 107.675C264.686 111.678 266.35 115.014 268.714 117.767C271.079 120.519 274.057 122.604 277.823 124.106C281.59 125.607 286.144 126.274 291.487 126.274C295.691 126.274 299.808 125.607 304.012 124.189C308.216 122.771 311.281 121.186 313.383 119.268L318.901 129.443ZM287.283 59.0502C280.013 59.0502 274.232 60.8851 269.941 64.4715C265.561 68.0579 263.021 74.3132 262.146 83.0706H307.778C307.778 74.2298 306.026 67.9744 302.435 64.3881C298.757 60.8017 293.764 59.0502 287.283 59.0502Z" fill="white"/>
<path d="M410.341 129.443C406.663 132.279 402.021 134.448 396.415 136.116C390.81 137.784 384.941 138.534 378.635 138.534C371.628 138.534 365.585 137.45 360.417 135.282C355.25 133.113 351.046 130.027 347.717 126.024C344.389 122.02 341.937 117.183 340.36 111.595C338.783 106.007 337.995 99.6681 337.995 92.6621C337.995 77.7327 341.499 66.3064 348.506 58.4664C355.512 50.6264 365.497 46.7064 378.46 46.7064C382.664 46.7064 386.781 47.1234 390.985 48.0408C395.189 48.8749 398.868 50.543 402.196 53.0451C405.524 55.5472 408.239 58.9668 410.254 63.4706C412.356 67.9744 413.407 73.8961 413.407 81.2357C413.407 85.0723 413.057 89.3259 412.268 93.9966H353.235C353.235 99.1676 353.761 103.671 354.899 107.675C356.038 111.678 357.702 115.014 360.067 117.767C362.432 120.519 365.41 122.604 369.176 124.106C372.942 125.607 377.497 126.274 382.839 126.274C387.043 126.274 391.16 125.607 395.364 124.189C399.568 122.771 402.634 121.186 404.736 119.268L410.341 129.443ZM378.635 59.0502C371.365 59.0502 365.585 60.8851 361.293 64.4715C356.914 68.0579 354.374 74.3132 353.498 83.0706H399.13C399.13 74.2298 397.379 67.9744 393.788 64.3881C390.197 60.8017 385.204 59.0502 378.635 59.0502Z" fill="white"/>
<path d="M436.617 49.0417C440.909 48.7915 445.376 48.5413 450.106 48.2076C454.835 47.874 460.703 47.7072 467.71 47.7072C479.885 47.7072 488.556 49.4587 493.811 53.0451C499.066 56.6315 501.694 61.9693 501.694 69.2255C501.694 73.3123 500.468 77.3157 497.928 81.2357C495.388 85.1557 491.271 88.0749 485.49 89.9098V90.577C492.76 91.8281 497.84 94.2468 500.73 97.7498C503.708 101.253 505.11 105.923 505.11 111.762C505.11 120.853 501.694 127.442 494.774 131.528C487.943 135.615 477.608 137.617 463.856 137.617C458.689 137.617 453.959 137.45 449.492 137.2C445.113 136.866 440.734 136.616 436.442 136.199V49.0417H436.617ZM469.374 85.823C471.564 85.823 473.754 85.4893 475.856 84.7387C477.958 84.0715 479.797 83.0706 481.461 81.8196C483.126 80.5685 484.439 79.1506 485.49 77.5659C486.541 75.8979 487.067 74.1464 487.067 72.3115C487.067 67.6408 485.578 64.3881 482.688 62.5532C479.71 60.7183 474.63 59.8008 467.272 59.8008C463.331 59.8008 460.266 59.8842 457.988 59.9676C455.711 60.051 453.521 60.2179 451.419 60.3013V85.6561H469.374V85.823ZM451.332 124.689C453.697 124.94 455.974 125.106 458.251 125.19C460.528 125.273 463.156 125.357 466.221 125.357C474.454 125.357 480.498 124.272 484.527 122.02C488.468 119.768 490.483 116.015 490.483 110.594C490.483 106.424 488.819 103.004 485.403 100.335C481.987 97.7498 476.031 96.4153 467.448 96.4153H451.244V124.689H451.332Z" fill="white"/>
<path d="M154.064 9.00766C155.115 8.92425 156.166 8.84085 157.305 8.75745C158.443 8.67404 159.845 8.59064 161.597 8.59064C164.575 8.59064 166.677 9.00766 167.903 9.92511C169.217 10.7591 169.83 12.0936 169.83 13.8451C169.83 14.846 169.567 15.8468 168.954 16.7643C168.341 17.6817 167.377 18.4323 165.976 18.8494V19.0162C167.728 19.3498 168.954 19.9336 169.655 20.7677C170.355 21.6017 170.706 22.7694 170.706 24.1872C170.706 26.4391 169.83 28.0238 168.166 29.0247C166.501 30.0255 163.961 30.526 160.633 30.526C159.407 30.526 158.181 30.526 157.13 30.4426C156.079 30.3591 155.028 30.2757 153.977 30.1923V9.00766H154.064ZM162.034 17.9319C162.56 17.9319 163.086 17.8485 163.611 17.6817C164.137 17.5149 164.574 17.2647 165.012 17.0145C165.45 16.6809 165.713 16.3472 165.976 16.0136C166.239 15.5966 166.326 15.1796 166.326 14.7626C166.326 13.5949 165.976 12.8443 165.275 12.4272C164.574 12.0102 163.348 11.76 161.509 11.76C160.546 11.76 159.845 11.76 159.232 11.8434C158.706 11.8434 158.181 11.9268 157.655 11.9268V18.0987H162.034V17.9319ZM157.655 27.3566C158.181 27.44 158.794 27.44 159.319 27.5234C159.845 27.5234 160.546 27.6068 161.246 27.6068C163.261 27.6068 164.75 27.3566 165.713 26.7728C166.677 26.2723 167.202 25.2715 167.202 24.0204C167.202 23.0196 166.764 22.1855 165.976 21.5183C165.188 20.8511 163.699 20.6009 161.597 20.6009H157.655V27.3566Z" fill="white"/>
<path d="M176.399 8.92428H178.851L179.552 11.5098H179.727C180.428 10.509 181.303 9.75833 182.354 9.2579C183.406 8.75748 184.719 8.50726 186.121 8.50726C189.099 8.50726 191.288 9.34131 192.777 11.0094C194.266 12.6775 194.967 15.4298 194.967 19.183C194.967 20.9345 194.704 22.6026 194.266 24.0205C193.741 25.4383 193.04 26.6894 192.164 27.6902C191.288 28.6911 190.15 29.4417 188.923 30.0256C187.697 30.526 186.208 30.8596 184.719 30.8596C183.581 30.8596 182.705 30.7762 182.092 30.6928C181.479 30.526 180.778 30.3592 179.99 30.0256V38.8664H176.399V8.92428ZM185.42 11.4264C183.931 11.4264 182.705 11.8434 181.829 12.5941C180.953 13.3447 180.34 14.5124 179.99 16.0136V26.5226C180.515 26.9396 181.128 27.1898 181.829 27.44C182.53 27.6902 183.406 27.7736 184.544 27.7736C186.559 27.7736 188.223 27.023 189.449 25.6051C190.675 24.1039 191.288 22.0188 191.288 19.183C191.288 18.0153 191.201 16.9311 190.938 16.0136C190.763 15.0962 190.412 14.2622 189.974 13.5949C189.537 12.9277 188.923 12.4273 188.223 12.0102C187.347 11.5932 186.471 11.4264 185.42 11.4264Z" fill="white"/>
<path d="M200.222 10.5089C201.361 9.8417 202.675 9.34128 204.163 9.09106C205.652 8.75745 207.229 8.59064 208.893 8.59064C210.47 8.59064 211.696 8.75745 212.659 9.17447C213.623 9.59149 214.324 10.0919 214.761 10.7591C215.287 11.4264 215.55 12.0936 215.725 12.8443C215.9 13.5949 215.988 14.3455 215.988 15.1796C215.988 16.8477 215.9 18.5157 215.812 20.1838C215.725 21.7685 215.637 23.3532 215.637 24.7711C215.637 25.8553 215.725 26.7728 215.812 27.7736C215.9 28.7745 216.075 29.6085 216.338 30.3591H213.71L212.747 27.3566H212.484C212.221 27.7736 211.871 28.1072 211.521 28.5243C211.083 28.9413 210.645 29.2749 210.032 29.5251C209.506 29.8587 208.806 30.1089 208.105 30.2757C207.317 30.4426 206.528 30.6094 205.565 30.6094C204.601 30.6094 203.726 30.4426 202.937 30.1923C202.149 29.9421 201.448 29.5251 200.835 28.9413C200.222 28.4409 199.784 27.7736 199.434 27.023C199.083 26.2723 198.908 25.4383 198.908 24.5209C198.908 23.2698 199.171 22.2689 199.697 21.4349C200.222 20.6009 201.01 19.9336 201.974 19.4332C202.937 18.9328 204.076 18.5991 205.477 18.3489C206.791 18.0987 208.368 18.0153 209.944 18.0153C210.382 18.0153 210.732 18.0153 211.17 18.0153C211.608 18.0153 211.959 18.0153 212.397 18.0987C212.484 17.2647 212.572 16.514 212.572 15.7634C212.572 14.1787 212.221 13.0945 211.608 12.5106C210.995 11.9268 209.769 11.5932 208.017 11.5932C207.492 11.5932 206.966 11.5932 206.353 11.6766C205.74 11.76 205.215 11.8434 204.601 12.0102C203.988 12.177 203.375 12.2604 202.85 12.5106C202.324 12.6774 201.799 12.9277 201.361 13.1779L200.222 10.5089ZM206.528 27.6068C207.404 27.6068 208.105 27.5234 208.718 27.2732C209.331 27.023 209.944 26.7728 210.382 26.4391C210.82 26.1055 211.258 25.7719 211.608 25.3549C211.959 24.9379 212.134 24.6043 212.309 24.1872V20.6843C211.871 20.6843 211.433 20.6009 210.995 20.6009C210.557 20.6009 210.119 20.6009 209.681 20.6009C208.718 20.6009 207.842 20.6843 206.966 20.7677C206.09 20.8511 205.302 21.0179 204.601 21.3515C203.901 21.6017 203.375 22.0187 203.025 22.4357C202.587 22.9362 202.412 23.52 202.412 24.1872C202.412 25.1881 202.762 26.0221 203.55 26.606C204.426 27.2732 205.39 27.6068 206.528 27.6068Z" fill="white"/>
<path d="M225.009 8.92426V14.6791C225.009 15.4298 225.097 16.097 225.184 16.7643C225.272 17.3481 225.447 17.9319 225.71 18.3489C225.972 18.766 226.323 19.0996 226.848 19.3498C227.374 19.6 227.987 19.6834 228.863 19.6834C230.177 19.6834 231.315 19.5166 232.191 19.2664C233.067 19.0162 233.68 18.6826 234.118 18.3489V8.92426H237.709V30.1923H234.118V21.2681C233.68 21.5183 232.892 21.8519 232.016 22.1855C231.052 22.5191 229.826 22.686 228.162 22.686C227.023 22.686 226.06 22.6026 225.272 22.3523C224.396 22.1021 223.695 21.7685 223.17 21.1847C222.644 20.6009 222.206 19.8502 221.856 18.9328C221.593 18.0153 221.418 16.8477 221.418 15.4298V8.92426H225.009Z" fill="white"/>
<path d="M243.752 16.3472H254.526V19.5166H243.752V16.3472Z" fill="white"/>
<path d="M274.32 20.8511H264.248V30.2757H260.657V8.92426H264.248V17.8485H274.32V8.92426H277.911V30.1923H274.32V20.8511Z" fill="white"/>
<path d="M301.121 28.5243C300.246 29.1915 299.107 29.7753 297.706 30.109C296.392 30.526 294.903 30.6928 293.414 30.6928C291.75 30.6928 290.261 30.4426 289.034 29.9422C287.808 29.4417 286.757 28.6911 285.969 27.6902C285.181 26.6894 284.568 25.5217 284.217 24.1873C283.867 22.8528 283.604 21.2681 283.604 19.6C283.604 15.9302 284.48 13.1779 286.144 11.343C287.808 9.42471 290.261 8.50726 293.414 8.50726C294.465 8.50726 295.428 8.59067 296.479 8.84088C297.53 9.09109 298.406 9.42471 299.194 10.0919C299.983 10.6758 300.683 11.5098 301.121 12.5941C301.559 13.6783 301.91 15.0962 301.91 16.9311C301.91 17.8485 301.822 18.9328 301.647 20.0171H287.283C287.283 21.2681 287.458 22.3524 287.721 23.3532C287.983 24.3541 288.421 25.1047 288.947 25.7719C289.472 26.4392 290.261 26.9396 291.137 27.2732C292.012 27.6068 293.151 27.7736 294.465 27.7736C295.516 27.7736 296.479 27.6068 297.53 27.2732C298.581 26.9396 299.282 26.5226 299.808 26.1056L301.121 28.5243ZM293.414 11.4264C291.662 11.4264 290.261 11.8434 289.21 12.7609C288.159 13.6783 287.546 15.1796 287.283 17.2647H298.319C298.319 15.0962 297.881 13.5949 297.005 12.7609C296.217 11.8434 294.99 11.4264 293.414 11.4264Z" fill="white"/>
<path d="M321.441 17.5983L321.617 14.9294H321.441L319.602 17.6817L309.53 30.1923H307.515V8.92426H311.106V21.9353L310.931 24.4374H311.106L312.858 21.7685L322.93 8.92426H325.032V30.1923H321.441V17.5983ZM312.595 0.333618C312.858 1.66809 313.383 2.58553 314.172 3.08596C314.872 3.58639 315.748 3.8366 316.712 3.8366C317.675 3.8366 318.551 3.58638 319.252 3.00255C319.952 2.50213 320.478 1.58468 320.741 0.333618L323.456 1.16766C323.193 2.83575 322.405 4.08681 321.179 4.92085C319.952 5.8383 318.376 6.25532 316.624 6.25532C315.836 6.25532 315.048 6.17192 314.259 5.9217C313.471 5.7549 312.77 5.42128 312.157 5.00426C311.544 4.58724 311.019 4.08681 310.581 3.50298C310.143 2.91915 309.88 2.16851 309.705 1.25107L312.595 0.333618Z" fill="white"/>
<path d="M331.864 8.92428H334.317L335.017 11.5098H335.192C335.893 10.509 336.769 9.75833 337.82 9.2579C338.871 8.75748 340.185 8.50726 341.586 8.50726C344.564 8.50726 346.754 9.34131 348.243 11.0094C349.732 12.6775 350.432 15.4298 350.432 19.183C350.432 20.9345 350.17 22.6026 349.732 24.0205C349.206 25.4383 348.506 26.6894 347.63 27.6902C346.754 28.6911 345.615 29.4417 344.389 30.0256C343.163 30.526 341.674 30.8596 340.185 30.8596C339.046 30.8596 338.17 30.7762 337.557 30.6928C336.944 30.526 336.243 30.3592 335.455 30.0256V38.8664H331.864V8.92428ZM340.886 11.4264C339.397 11.4264 338.17 11.8434 337.294 12.5941C336.419 13.3447 335.806 14.5124 335.455 16.0136V26.5226C335.981 26.9396 336.594 27.1898 337.294 27.44C337.995 27.6902 338.871 27.7736 340.01 27.7736C342.024 27.7736 343.688 27.023 344.914 25.6051C346.141 24.1039 346.754 22.0188 346.754 19.183C346.754 18.0153 346.666 16.9311 346.403 16.0136C346.228 15.0962 345.878 14.2622 345.44 13.5949C345.002 12.9277 344.389 12.4273 343.688 12.0102C342.9 11.5932 341.937 11.4264 340.886 11.4264Z" fill="white"/>
<path d="M354.812 19.6C354.812 16.0136 355.688 13.2613 357.352 11.343C359.016 9.42471 361.468 8.50726 364.621 8.50726C366.286 8.50726 367.775 8.75748 369.001 9.2579C370.227 9.75833 371.278 10.509 372.066 11.5098C372.854 12.5107 373.468 13.6783 373.818 15.0128C374.168 16.3473 374.431 17.9319 374.431 19.6C374.431 23.1864 373.555 25.9388 371.891 27.8571C370.227 29.7754 367.775 30.6928 364.621 30.6928C362.957 30.6928 361.468 30.4426 360.242 29.9422C359.016 29.4417 357.965 28.6911 357.177 27.6902C356.388 26.6894 355.775 25.5217 355.425 24.1873C354.987 22.7694 354.812 21.2681 354.812 19.6ZM358.49 19.6C358.49 20.6843 358.578 21.6851 358.841 22.686C359.103 23.6868 359.454 24.5209 359.892 25.2715C360.33 26.0222 361.03 26.606 361.731 27.023C362.519 27.44 363.483 27.6902 364.534 27.6902C368.563 27.6902 370.577 25.0213 370.577 19.5166C370.577 18.4324 370.49 17.3481 370.227 16.3473C369.964 15.3464 369.614 14.5124 369.176 13.7617C368.738 13.0111 368.037 12.4273 367.337 12.0102C366.548 11.5932 365.585 11.343 364.534 11.343C360.505 11.343 358.49 14.0953 358.49 19.6Z" fill="white"/>
<path d="M384.854 19.3498L377.321 9.00763H381.701L385.905 14.8459L387.131 17.2647L388.445 14.8459L392.737 9.00763H396.766L389.321 19.183L397.291 30.2757H393.087L388.357 23.7702L387.043 21.1847L385.642 23.7702L380.825 30.2757H376.883L384.854 19.3498Z" fill="white"/>
<path d="M415.947 17.5983L416.035 15.0128H415.859L414.02 17.7651L403.948 30.2757H402.021V8.92426H405.612V21.9353L405.437 24.4374H405.612L407.363 21.7685L417.436 8.92426H419.538V30.1923H415.947V17.5983Z" fill="white"/>
<path d="M426.37 8.92428H428.822L429.523 11.5098H429.698C430.399 10.509 431.275 9.75833 432.326 9.2579C433.377 8.75748 434.69 8.50726 436.092 8.50726C439.07 8.50726 441.259 9.34131 442.748 11.0094C444.237 12.6775 444.938 15.4298 444.938 19.183C444.938 20.9345 444.675 22.6026 444.237 24.0205C443.712 25.4383 443.011 26.6894 442.135 27.6902C441.259 28.6911 440.121 29.4417 438.894 30.0256C437.668 30.526 436.179 30.8596 434.69 30.8596C433.552 30.8596 432.676 30.7762 432.063 30.6928C431.45 30.526 430.749 30.3592 429.961 30.0256V38.8664H426.37V8.92428ZM435.391 11.4264C433.902 11.4264 432.676 11.8434 431.8 12.5941C430.924 13.3447 430.311 14.5124 429.961 16.0136V26.5226C430.486 26.9396 431.099 27.1898 431.8 27.44C432.501 27.6902 433.377 27.7736 434.515 27.7736C436.53 27.7736 438.194 27.023 439.42 25.6051C440.646 24.1039 441.259 22.0188 441.259 19.183C441.259 18.0153 441.172 16.9311 440.909 16.0136C440.734 15.0962 440.383 14.2622 439.946 13.5949C439.508 12.9277 438.894 12.4273 438.194 12.0102C437.406 11.5932 436.442 11.4264 435.391 11.4264Z" fill="white"/>
<path d="M456.587 22.686L457.813 26.7728H458.076L459.039 22.686L463.419 8.92426H467.01L460.441 28.0238C459.915 29.4417 459.477 30.7762 458.952 32.0272C458.426 33.3617 457.901 34.5294 457.288 35.5302C456.674 36.5311 456.061 37.3651 455.273 37.9489C454.572 38.5328 453.697 38.8664 452.646 38.8664C451.595 38.8664 450.719 38.6996 450.018 38.4494L450.631 35.5302C450.981 35.697 451.419 35.7804 451.77 35.7804C452.646 35.7804 453.434 35.3634 454.222 34.5294C455.01 33.6953 455.623 32.2774 456.149 30.1923L447.128 8.92426H451.244L456.587 22.686Z" fill="white"/>
<path d="M470.863 8.92428H473.316L474.017 11.5098H474.192C474.892 10.509 475.768 9.75833 476.819 9.2579C477.87 8.75748 479.184 8.50726 480.586 8.50726C483.563 8.50726 485.753 9.34131 487.242 11.0094C488.731 12.6775 489.432 15.4298 489.432 19.183C489.432 20.9345 489.169 22.6026 488.731 24.0205C488.206 25.4383 487.505 26.6894 486.629 27.6902C485.753 28.6911 484.615 29.4417 483.388 30.0256C482.162 30.526 480.673 30.8596 479.184 30.8596C478.046 30.8596 477.17 30.7762 476.557 30.6928C475.943 30.526 475.243 30.3592 474.455 30.0256V38.8664H470.863V8.92428ZM479.885 11.4264C478.396 11.4264 477.17 11.8434 476.294 12.5941C475.418 13.3447 474.805 14.5124 474.455 16.0136V26.5226C474.98 26.9396 475.593 27.1898 476.294 27.44C476.994 27.6902 477.87 27.7736 479.009 27.7736C481.023 27.7736 482.688 27.023 483.914 25.6051C485.14 24.1039 485.753 22.0188 485.753 19.183C485.753 18.0153 485.666 16.9311 485.403 16.0136C485.228 15.0962 484.877 14.2622 484.439 13.5949C484.001 12.9277 483.388 12.4273 482.688 12.0102C481.812 11.5932 480.936 11.4264 479.885 11.4264Z" fill="white"/>
<path d="M508 11.9268H498.541V30.1923H494.95V8.92426H508V11.9268Z" fill="white"/>
</svg>
